<svg width="24" height="24" viewBox="0 0 24 24" fill="none" xmlns="http://www.w3.org/2000/svg">
<path d="M12.0004 20V16M7.00041 4H17.0004M9.00041 5V10C9.00041 10.552 8.53041 11.005 8.05241 11.279C6.61741 12.101 5.45041 14.524 5.79541 15.644C5.87341 15.898 6.14941 16 6.41541 16H17.5854C17.8514 16 18.1274 15.898 18.2054 15.644C18.5504 14.524 17.3834 12.101 15.9494 11.279C15.4694 11.005 15.0004 10.552 15.0004 10V5C15.0004 4.73478 14.895 4.48043 14.7075 4.29289C14.52 4.10536 14.2656 4 14.0004 4H10.0004C9.73519 4 9.48084 4.10536 9.2933 4.29289C9.10576 4.48043 9.00041 4.73478 9.00041 5Z" stroke="#202020" strokeWidth="2" strokeLinecap="round"/>
</svg>
