<svg width="24" height="24" viewBox="0 0 24 24" fill="none" xmlns="http://www.w3.org/2000/svg">
<path fillRule="evenodd" clipRule="evenodd" d="M8.0498 2C7.78459 2 7.53023 2.10536 7.3427 2.29289C7.15516 2.48043 7.0498 2.73478 7.0498 3C7.0498 3.26522 7.15516 3.51957 7.3427 3.70711C7.53023 3.89464 7.78459 4 8.0498 4H9.0498V7.315C6.3508 8.479 4.0498 10.945 4.0498 14.2C4.0498 18.535 7.6598 22 12.0498 22C16.4398 22 20.0498 18.535 20.0498 14.2C20.0498 10.946 17.7488 8.479 15.0498 7.315V4H16.0498C16.315 4 16.5694 3.89464 16.7569 3.70711C16.9444 3.51957 17.0498 3.26522 17.0498 3C17.0498 2.73478 16.9444 2.48043 16.7569 2.29289C16.5694 2.10536 16.315 2 16.0498 2H8.0498ZM11.0498 8V4H13.0498V8C13.0497 8.20835 13.1148 8.41151 13.2358 8.58112C13.3568 8.75072 13.5278 8.87829 13.7248 8.946C16.1148 9.766 17.9448 11.69 18.0448 14H6.0558C6.1558 11.69 7.9858 9.767 10.3758 8.946C10.5727 8.87812 10.7434 8.75048 10.8642 8.58089C10.9851 8.4113 11.0499 8.20823 11.0498 8Z" fill="#202020"/>
</svg>
