<svg width="24" height="24" viewBox="0 0 24 24" fill="none" xmlns="http://www.w3.org/2000/svg">
<path d="M12.7501 20.6597L18.9341 13.5617C21.6111 10.6777 21.4931 7.05574 19.6881 4.85674C18.7901 3.76174 17.4821 3.04074 15.9681 3.00174C14.6751 2.96774 13.3161 3.43174 12.0051 4.44374C10.6901 3.43174 9.3271 2.96774 8.0321 3.00174C6.5171 3.04174 5.2071 3.76174 4.3081 4.85674C2.5021 7.05774 2.3931 10.6797 5.0801 13.5627L11.2631 20.6597C11.4531 20.8757 11.7231 20.9997 12.0061 20.9997C12.1469 20.9986 12.2859 20.9677 12.4139 20.9091C12.542 20.8505 12.6562 20.7655 12.7491 20.6597H12.7501Z" fill="#CC0033"/>
</svg>
