<svg width="24" height="24" viewBox="0 0 24 24" fill="none" xmlns="http://www.w3.org/2000/svg">
<path fillRule="evenodd" clipRule="evenodd" d="M12.0211 2.37537C12.1228 2.52263 12.1831 2.69449 12.1958 2.87303C12.2085 3.05156 12.173 3.23022 12.0931 3.39037C12.0101 3.55737 11.9641 3.88637 12.0061 4.20837C12.0318 4.40284 12.1027 4.58857 12.2132 4.75063C12.3238 4.91269 12.4708 5.04656 12.6424 5.14148C12.8141 5.23641 13.0056 5.28974 13.2016 5.29719C13.3977 5.30463 13.5927 5.26599 13.7711 5.18437C13.9097 5.12078 14.0611 5.08977 14.2136 5.0937C14.3661 5.09764 14.5157 5.13641 14.6509 5.20706C14.7862 5.2777 14.9034 5.37835 14.9937 5.5013C15.0841 5.62424 15.1451 5.76622 15.1721 5.91637C15.2088 6.10288 15.1917 6.29602 15.1226 6.47313C15.0535 6.65024 14.9354 6.80399 14.7821 6.91637C14.5849 7.06025 14.4225 7.24649 14.3068 7.4614C14.1911 7.67631 14.1251 7.91441 14.1135 8.15821C14.102 8.40201 14.1452 8.64529 14.2401 8.87017C14.335 9.09505 14.479 9.2958 14.6617 9.45767C14.8444 9.61954 15.061 9.73839 15.2957 9.80551C15.5303 9.87262 15.7771 9.88628 16.0177 9.84548C16.2583 9.80468 16.4868 9.71046 16.6862 9.56974C16.8856 9.42903 17.051 9.2454 17.1701 9.03237C17.2983 8.80625 17.5096 8.63896 17.7591 8.56596C18.0086 8.49296 18.2767 8.51999 18.5066 8.64131C18.7365 8.76264 18.9101 8.96873 18.9907 9.2159C19.0712 9.46306 19.0524 9.73188 18.9381 9.96537C18.8261 10.1905 18.7877 10.4451 18.8282 10.6933C18.8688 10.9414 18.9862 11.1706 19.1641 11.3484C19.2899 11.4744 19.4423 11.5709 19.6101 11.6307C19.7778 11.6906 19.9568 11.7123 20.1341 11.6944C20.1821 11.689 20.2297 11.6874 20.2771 11.6894C20.3881 11.6944 20.8021 11.6824 21.0311 11.6734C21.1727 11.668 21.3138 11.6929 21.4451 11.7462C21.5764 11.7995 21.6949 11.8802 21.7927 11.9828C21.8904 12.0854 21.9653 12.2076 22.0122 12.3413C22.0592 12.475 22.0772 12.6172 22.0651 12.7584C21.8659 15.1056 20.8412 17.3062 19.1731 18.9694C15.2681 22.8744 8.93606 22.8744 5.03106 18.9694C1.12506 15.0644 1.12506 8.73237 5.03106 4.82737C6.65914 3.19431 8.80343 2.17677 11.0981 1.94837C11.276 1.93049 11.4556 1.96067 11.6179 2.03577C11.7802 2.11088 11.9195 2.22815 12.0211 2.37537ZM8.65706 8.41537C8.39185 8.41537 8.13749 8.52073 7.94996 8.70826C7.76242 8.8958 7.65706 9.15015 7.65706 9.41537C7.65706 9.68059 7.76242 9.93494 7.94996 10.1225C8.13749 10.31 8.39185 10.4154 8.65706 10.4154H8.66706C8.93228 10.4154 9.18663 10.31 9.37417 10.1225C9.56171 9.93494 9.66706 9.68059 9.66706 9.41537C9.66706 9.15015 9.56171 8.8958 9.37417 8.70826C9.18663 8.52073 8.93228 8.41537 8.66706 8.41537H8.65706ZM7.27106 12.0004C7.00585 12.0004 6.75149 12.1057 6.56396 12.2933C6.37642 12.4808 6.27106 12.7352 6.27106 13.0004C6.27106 13.2656 6.37642 13.5199 6.56396 13.7075C6.75149 13.895 7.00585 14.0004 7.27106 14.0004H7.28106C7.54628 14.0004 7.80063 13.895 7.98817 13.7075C8.17571 13.5199 8.28106 13.2656 8.28106 13.0004C8.28106 12.7352 8.17571 12.4808 7.98817 12.2933C7.80063 12.1057 7.54628 12.0004 7.28106 12.0004H7.27106ZM14.9591 13.9164C14.6938 13.9164 14.4395 14.0217 14.252 14.2093C14.0644 14.3968 13.9591 14.6512 13.9591 14.9164C13.9591 15.1816 14.0644 15.4359 14.252 15.6235C14.4395 15.811 14.6938 15.9164 14.9591 15.9164H14.9691C15.2343 15.9164 15.4886 15.811 15.6762 15.6235C15.8637 15.4359 15.9691 15.1816 15.9691 14.9164C15.9691 14.6512 15.8637 14.3968 15.6762 14.2093C15.4886 14.0217 15.2343 13.9164 14.9691 13.9164H14.9591ZM11.0001 16.0004C10.7348 16.0004 10.4805 16.1057 10.293 16.2933C10.1054 16.4808 10.0001 16.7352 10.0001 17.0004C10.0001 17.2656 10.1054 17.5199 10.293 17.7075C10.4805 17.895 10.7348 18.0004 11.0001 18.0004H11.0101C11.2753 18.0004 11.5296 17.895 11.7172 17.7075C11.9047 17.5199 12.0101 17.2656 12.0101 17.0004C12.0101 16.7352 11.9047 16.4808 11.7172 16.2933C11.5296 16.1057 11.2753 16.0004 11.0101 16.0004H11.0001Z" fill="#202020"/>
</svg>
