<svg width="32" height="25" viewBox="0 0 32 25" fill="none" xmlns="http://www.w3.org/2000/svg">
<g clip-path="url(#clip0_437_2279)">
<path d="M30.1129 9.87972C29.3495 9.20386 28.7349 8.39009 28.0722 7.61735C26.7894 6.1528 24.8898 5.32421 22.9835 5.34359C21.4432 5.33789 19.8929 5.86558 18.357 5.55786C17.2108 5.3527 16.2403 4.63353 15.5116 3.73201C13.9198 1.67707 12.8497 -0.367605 10.078 1.38872C9.25417 1.90502 8.41127 2.42929 7.44412 2.59684C6.34376 2.82136 5.13146 2.67434 4.12177 3.22939C2.05202 4.40445 2.73261 7.18425 3.52625 9.00326C3.84192 9.78398 4.17774 10.5533 4.41169 11.3625C4.89191 12.9445 4.90982 14.6757 5.39004 16.2759C5.5725 16.8856 5.81652 17.4851 6.18033 18.0049C6.49152 18.4608 6.91017 18.8403 7.27173 19.246C7.65568 19.6711 7.93665 20.135 8.11239 20.6821C8.28142 21.1904 8.37881 21.7352 8.58366 22.2333C8.98552 23.2328 9.79596 24.0454 10.753 24.5002C13.2336 25.6365 14.0709 23.2271 15.9313 23.4402C16.6925 23.5155 17.3451 24.4876 17.8242 24.7521C18.1612 24.9447 18.4354 24.637 18.6537 24.3896C18.8988 24.1138 19.1854 23.8198 19.5548 23.7263C19.9511 23.6135 20.4145 23.6944 20.8387 23.7149C22.6723 23.8357 23.4324 22.5581 24.2473 21.089C24.6491 20.3926 25.398 20.1931 26.0674 19.8729C26.7435 19.5617 27.2439 18.9862 27.8584 18.4972C28.7058 17.8556 29.6595 17.3472 30.4722 16.6566C32.1502 15.3732 32.4882 12.8339 31.2636 11.1186C30.9435 10.6593 30.5315 10.2729 30.1274 9.89339L30.1106 9.87744L30.1129 9.87972Z" fill="#202020"/>
<path d="M6.63768 7.49167C6.50448 7.49167 6.38806 7.40505 6.31866 7.25461C6.15523 6.95144 6.275 6.41576 6.53806 6.26304C6.58843 6.22885 6.64104 6.21289 6.69701 6.21289C6.79664 6.21289 6.89626 6.26646 6.96231 6.35764C7.14477 6.5833 7.1291 6.97081 7.01044 7.20218L7.00148 7.21927C6.92313 7.38795 6.78432 7.49281 6.63768 7.49281V7.49167Z" fill="white"/>
<path d="M6.69724 6.25801C6.78344 6.25801 6.86963 6.30588 6.93008 6.38794C7.09463 6.59195 7.08455 6.96236 6.97149 7.18233L6.96142 7.2017C6.8909 7.35329 6.76665 7.44789 6.63792 7.44789C6.5215 7.44789 6.42075 7.37039 6.35919 7.23704V7.23476L6.35695 7.23248C6.19576 6.93501 6.33904 6.43239 6.56068 6.3036H6.56292L6.56516 6.30018C6.60545 6.27282 6.65023 6.25915 6.69724 6.25915M6.69724 6.16911C6.63568 6.16911 6.57299 6.18734 6.5159 6.22496C6.24277 6.38338 6.09949 6.94299 6.27859 7.27465C6.36031 7.45359 6.49799 7.53792 6.6368 7.53792C6.79239 7.53792 6.95022 7.43421 7.03978 7.24046L7.04873 7.22336C7.18306 6.96236 7.18082 6.5589 6.99724 6.33095C6.92224 6.22951 6.8103 6.16797 6.69612 6.16797L6.69724 6.16911Z" fill="black"/>
<path d="M9.8167 7.49053C9.67342 7.49053 9.53461 7.39023 9.45402 7.22953L9.44506 7.21129C9.31969 6.98335 9.29282 6.59584 9.46745 6.36675C9.53461 6.26988 9.63536 6.21289 9.73834 6.21289C9.79095 6.21289 9.84132 6.22771 9.88834 6.25734C10.1581 6.40437 10.2924 6.93662 10.1391 7.24093C10.0719 7.40049 9.95438 7.49053 9.8167 7.49053Z" fill="white"/>
<path d="M9.73912 6.25882C9.78389 6.25882 9.82643 6.27136 9.86561 6.29643H9.86785L9.87009 6.29985C10.0951 6.4218 10.2518 6.91986 10.0996 7.22189V7.22417L10.0973 7.22645C10.038 7.3655 9.93613 7.44642 9.81636 7.44642C9.68986 7.44642 9.56561 7.35524 9.49173 7.20708L9.48278 7.18998C9.36412 6.97457 9.34397 6.60302 9.50405 6.39217C9.56225 6.30897 9.64957 6.25882 9.738 6.25882M9.73912 6.16992C9.62158 6.16992 9.5074 6.23375 9.43352 6.34088C9.25666 6.57339 9.26562 6.97685 9.40666 7.23443L9.41561 7.25153C9.50852 7.43844 9.66524 7.5376 9.81747 7.5376C9.96076 7.5376 10.1007 7.44984 10.179 7.26406C10.3481 6.9267 10.1902 6.37279 9.91262 6.22235C9.85777 6.18702 9.79845 6.17106 9.73912 6.17106V6.16992Z" fill="black"/>
<path d="M21.0947 1.82662C21.0522 1.44937 21.3645 1.12568 21.6891 1.00829C22.3585 0.759829 22.3809 2.52185 22.1828 2.84554C22.0249 3.17492 21.7026 2.92988 21.5436 2.72245C21.3421 2.47968 21.1272 2.14118 21.0958 1.83915V1.82662H21.0947Z" fill="#202020"/>
<path d="M23.4527 1.27201C23.7818 0.69987 24.403 0.329457 24.9974 0.0889739C25.5907 -0.170885 26.1593 0.157358 26.1056 0.82752C26.0228 1.57518 25.162 1.88405 24.5631 2.19178C24.2273 2.32399 23.7336 2.71491 23.3933 2.48925C23.1056 2.19064 23.2612 1.63103 23.4459 1.28455L23.4538 1.27087L23.4527 1.27201Z" fill="#202020"/>
<path d="M0.574646 13.3905C0.195173 13.5683 -0.101465 13.9387 0.0328616 14.2476C0.253381 14.6738 1.30113 14.7958 1.90896 14.5222C2.53022 14.2647 2.58059 13.8407 2.03993 13.5512C1.68172 13.3335 1.04255 13.1739 0.592557 13.3825L0.574646 13.3905Z" fill="#202020"/>
<path d="M28.0991 24.4918C28.3342 24.9865 29.0316 25.2213 29.3596 24.7198C29.8017 24.0565 29.092 23.3077 28.4719 23.2872C27.8898 23.2803 27.8864 24.0827 28.0935 24.4793L28.1003 24.4918H28.0991Z" fill="#202020"/>
</g>
<defs>
<clipPath id="clip0_437_2279">
<rect width="32" height="25" fill="white"/>
</clipPath>
</defs>
</svg>
